<?xml version="1.0" encoding="UTF-8"?>
<svg width="75px" height="80px" viewBox="0 0 75 80" version="1.1" xmlns="http://www.w3.org/2000/svg" xmlns:xlink="http://www.w3.org/1999/xlink">
    <title>空状态1@3x</title>
    <g id="页面-2" stroke="none" stroke-width="1" fill="none" fill-rule="evenodd" opacity="0.7">
        <g id="海警-首页" transform="translate(-866.000000, -1375.000000)" fill="#02F3DD" fill-rule="nonzero">
            <g id="空状态1" transform="translate(866.000000, 1375.000000)">
                <path d="M60.3794479,26.3916872 L60.3794478,26.3916872 C63.7598158,26.3916872 66.7980751,28.454086 68.0454307,31.5958973 L74.2268729,47.1670064 L74.2268729,71.7525768 L74.2268729,71.7525767 C74.2268729,76.3074999 70.5343728,80 65.9794496,80 L8.24742357,80 L8.24742331,80 C3.69250011,80 0,76.3074999 0,71.7525767 L0,47.4927393 L6.19794346,31.6370457 L6.19794284,31.6370473 C7.43431503,28.4734263 10.4837881,26.3916872 13.8804166,26.3916872 L60.3794155,26.3916872 L60.3794479,26.3916872 Z M23.1876618,48.6598292 L3.29899257,48.6598292 L3.29899257,71.7526396 L3.29899257,71.75396 C3.29899257,74.2910343 5.21776038,76.4171154 7.7415478,76.6764873 L8.24745074,76.7010946 L65.9794767,76.7010946 L65.9794769,76.7010946 C68.5165512,76.7017717 70.6431348,74.7835726 70.9031873,72.2598585 L70.9279296,71.7526415 L70.9279296,48.6598292 L51.0392605,48.6598292 L51.0392605,48.6598292 C50.1401063,56.3508284 43.1764137,61.8566807 35.4854275,60.9575904 C29.0318501,60.2031031 23.9421634,55.113451 23.1876688,48.6598292 L23.1876618,48.6598292 Z M60.3835313,29.6907717 L13.8762609,29.6907717 L13.8762608,29.6907717 C12.0365757,29.689811 10.3482083,30.7095012 9.49275844,32.3381939 L9.26595462,32.8371633 L4.371111,45.3608725 L24.2968452,45.3608725 L24.2927215,45.4227281 L24.2927214,45.4227282 C25.1692313,45.1744842 26.0810285,45.6837952 26.3292704,46.560302 C26.3707391,46.7067217 26.3917462,46.8581755 26.3916939,47.0103549 L26.3916939,47.0103566 C26.3916948,52.9317672 31.1919482,57.7320111 37.1133484,57.7320111 C43.034759,57.7320111 47.8350029,52.9317567 47.8350029,47.0103566 L47.8350029,47.0103587 C47.8335538,46.1351629 48.5158918,45.4111988 49.3896428,45.3608678 L69.9586762,45.3608678 L64.9772322,32.8124486 L64.9772322,32.8124486 C64.3026935,31.1123753 62.7454109,29.9230046 60.9277449,29.7196596 L60.3792915,29.6907717 L60.3835313,29.6907717 Z M13.4680213,0.420655591 L13.6948252,0.668078709 L25.6948066,16.9237403 L25.6948066,16.9237403 C26.2285471,17.6619922 26.0627594,18.6931484 25.3245075,19.2268857 C24.7009103,19.6777345 23.8484267,19.637501 23.2700647,19.1299255 L23.0432608,18.8825024 L11.0432794,2.63092428 L11.0432794,2.63092423 C10.5031268,1.89735052 10.6599268,0.864793416 11.3935005,0.32463772 C12.0208911,-0.137328427 12.8859674,-0.0973075483 13.4680255,0.420612128 L13.4680213,0.420655591 Z M39.0638774,0 L39.0638773,0 C39.847826,0 40.5235824,0.551515269 40.6803761,1.31962758 L40.7133667,1.64952472 L40.7133667,17.9051863 L40.7133667,17.9052332 C40.7142555,18.8162178 39.9764772,19.5554361 39.0654874,19.5563269 C38.2804068,19.5570927 37.603573,19.0044184 37.4473656,18.2350392 L37.4143759,17.9051421 L37.4143759,1.64948047 C37.4143759,0.742264119 38.152521,0 39.0638564,0 L39.0638774,0 Z M66.8824873,0.321686553 L66.8824873,0.321686534 C67.5137488,0.786240955 67.7309377,1.63085918 67.402075,2.34231006 L67.2330027,2.63096967 L55.2618147,18.8783597 L55.2618148,18.8783597 C54.7164898,19.608096 53.6828522,19.7575908 52.9531096,19.2122659 C52.3333791,18.749147 52.1187952,17.9175319 52.4370692,17.2123842 L52.6020173,16.9237246 L64.5772887,0.672146421 L64.5772887,0.672146366 C65.1172821,-0.0608095986 66.1489953,-0.217688135 66.8824444,0.321630979 L66.8824873,0.321686553 Z" id="形状"></path>
            </g>
        </g>
    </g>
</svg>